# xmcd
#
# Track frame offsets: 
#        150
#        20423
#        25626
#        48643
#        64963
#        86322
#        109692
#        126966
#        144218
#        162071
#
# Disc length: 2522 seconds
#
# Revision: 4
# Processed by: cddbd v1.5.2PL0 Copyright (c) Steve Scherf et al.
# Submitted via: ExactAudioCopy v0.95b4
#
DISCID=7809d80a
DTITLE=Gary Moore - Dirty Fingers
DYEAR=1981
DGENRE=Hard Rock
TTITLE0=Hiroshima
TTITLE1=Dirty Fingers
TTITLE2=Bad News
TTITLE3=Don't Let Me Be Misunderstood
TTITLE4=Run To Your Mama
TTITLE5=Nuclear Attack
TTITLE6=Kidnapped
TTITLE7=Really Gonna Rock
TTITLE8=Lonely Nights
TTITLE9=Rest In Peace
EXTD=YEAR: 1981
EXTT0=
EXTT1=
EXTT2=
EXTT3=
EXTT4=
EXTT5=
EXTT6=
EXTT7=
EXTT8=
EXTT9=
PLAYORDER=
